<?xml version="1.0" standalone="no"?>
<!DOCTYPE svg PUBLIC "-//W3C//DTD SVG 20010904//EN"
 "http://www.w3.org/TR/2001/REC-SVG-20010904/DTD/svg10.dtd">
<svg version="1.0" xmlns="http://www.w3.org/2000/svg"
 width="44.000000pt" height="44.000000pt" viewBox="0 0 44.000000 44.000000"
 preserveAspectRatio="xMidYMid meet">

<g transform="translate(0.000000,44.000000) scale(0.100000,-0.100000)"
fill="#2563eb" stroke="none">
<path d="M135 421 c-146 -68 -179 -248 -65 -358 130 -126 350 -44 368 137 6
62 -12 113 -57 163 -66 74 -163 97 -246 58z m142 -42 c38 -14 83 -57 99 -96
57 -134 -84 -276 -219 -219 -106 44 -138 178 -64 263 51 58 118 77 184 52z"/>
<path d="M176 371 c-10 -16 54 -61 86 -61 38 0 33 21 -9 32 -17 4 -36 15 -43
23 -14 17 -26 19 -34 6z"/>
<path d="M85 290 c-11 -17 26 -31 103 -37 l81 -6 -15 -36 c-23 -54 -28 -56
-78 -28 -26 15 -48 21 -52 16 -8 -14 12 -35 46 -49 35 -15 38 -25 10 -40 -11
-6 -18 -15 -15 -21 10 -15 41 -10 60 11 13 15 31 20 67 20 56 0 64 23 10 28
-33 3 -42 16 -19 25 7 3 19 23 27 46 9 29 19 41 32 41 13 0 18 6 16 18 -3 13
-11 16 -38 12 -51 -7 -149 -6 -192 2 -21 4 -40 3 -43 -2z"/>
</g>
</svg>
